<svg width="28" height="28" viewBox="0 0 28 28" fill="none" xmlns="http://www.w3.org/2000/svg">
<g clip-path="url(#clip0_1_146)">
<path d="M18.6666 14.0001C18.6666 15.2834 19.7166 16.3334 21 16.3334C22.2833 16.3334 23.3333 15.2834 23.3333 14.0001C23.3333 12.7167 22.2833 11.6667 21 11.6667C19.7166 11.6667 18.6666 12.7167 18.6666 14.0001ZM16.3333 14.0001C16.3333 12.7167 15.2833 11.6667 14 11.6667C12.7166 11.6667 11.6666 12.7167 11.6666 14.0001C11.6666 15.2834 12.7166 16.3334 14 16.3334C15.2833 16.3334 16.3333 15.2834 16.3333 14.0001ZM9.33331 14.0001C9.33331 12.7167 8.28331 11.6667 6.99998 11.6667C5.71665 11.6667 4.66665 12.7167 4.66665 14.0001C4.66665 15.2834 5.71665 16.3334 6.99998 16.3334C8.28331 16.3334 9.33331 15.2834 9.33331 14.0001Z" fill="black"/>
</g>
<defs>
<clipPath id="clip0_1_146">
<rect width="28" height="28" fill="white" transform="translate(28) rotate(90)"/>
</clipPath>
</defs>
</svg>
