<svg width="20" height="20" viewBox="0 0 20 20" fill="none" xmlns="http://www.w3.org/2000/svg">
<g clip-path="url(#clip0_1_108)">
<path d="M10 1.66663C6.77502 1.66663 4.16669 4.27496 4.16669 7.49996C4.16669 11.875 10 18.3333 10 18.3333C10 18.3333 15.8334 11.875 15.8334 7.49996C15.8334 4.27496 13.225 1.66663 10 1.66663ZM5.83335 7.49996C5.83335 5.19996 7.70002 3.33329 10 3.33329C12.3 3.33329 14.1667 5.19996 14.1667 7.49996C14.1667 9.89996 11.7667 13.4916 10 15.7333C8.26669 13.5083 5.83335 9.87496 5.83335 7.49996Z" fill="black"/>
<path d="M10 9.58329C11.1506 9.58329 12.0834 8.65055 12.0834 7.49996C12.0834 6.34937 11.1506 5.41663 10 5.41663C8.84943 5.41663 7.91669 6.34937 7.91669 7.49996C7.91669 8.65055 8.84943 9.58329 10 9.58329Z" fill="black"/>
</g>
<defs>
<clipPath id="clip0_1_108">
<rect width="20" height="20" fill="white"/>
</clipPath>
</defs>
</svg>
