<svg width="20" height="20" viewBox="0 0 20 20" fill="none" xmlns="http://www.w3.org/2000/svg">
<g clip-path="url(#clip0_1_163)">
<path d="M11.6667 5.00008V3.33341H8.33332V5.00008H11.6667ZM3.33332 6.66675V15.8334H16.6667V6.66675H3.33332ZM16.6667 5.00008C17.5917 5.00008 18.3333 5.74175 18.3333 6.66675V15.8334C18.3333 16.7584 17.5917 17.5001 16.6667 17.5001H3.33332C2.40832 17.5001 1.66666 16.7584 1.66666 15.8334L1.67499 6.66675C1.67499 5.74175 2.40832 5.00008 3.33332 5.00008H6.66666V3.33341C6.66666 2.40841 7.40832 1.66675 8.33332 1.66675H11.6667C12.5917 1.66675 13.3333 2.40841 13.3333 3.33341V5.00008H16.6667Z" fill="black"/>
</g>
<defs>
<clipPath id="clip0_1_163">
<rect width="20" height="20" fill="white"/>
</clipPath>
</defs>
</svg>
