<svg width="16" height="16" viewBox="0 0 16 16" fill="none" xmlns="http://www.w3.org/2000/svg">
<g opacity="0.5" clip-path="url(#clip0_1_75)">
<path d="M7.33337 9.99998H8.66671V11.3333H7.33337V9.99998ZM7.33337 4.66665H8.66671V8.66665H7.33337V4.66665ZM7.99337 1.33331C4.31337 1.33331 1.33337 4.31998 1.33337 7.99998C1.33337 11.68 4.31337 14.6666 7.99337 14.6666C11.68 14.6666 14.6667 11.68 14.6667 7.99998C14.6667 4.31998 11.68 1.33331 7.99337 1.33331ZM8.00004 13.3333C5.05337 13.3333 2.66671 10.9466 2.66671 7.99998C2.66671 5.05331 5.05337 2.66665 8.00004 2.66665C10.9467 2.66665 13.3334 5.05331 13.3334 7.99998C13.3334 10.9466 10.9467 13.3333 8.00004 13.3333Z" fill="black"/>
</g>
<defs>
<clipPath id="clip0_1_75">
<rect width="16" height="16" fill="white"/>
</clipPath>
</defs>
</svg>
