<svg width="22" height="22" viewBox="0 0 22 22" fill="none" xmlns="http://www.w3.org/2000/svg">
<g clip-path="url(#clip0_1_81)">
<path d="M7.33333 9.16665H4.58333V6.41665H2.75V9.16665H0V11H2.75V13.75H4.58333V11H7.33333V9.16665ZM16.5 10.0833C18.0217 10.0833 19.2408 8.85498 19.2408 7.33331C19.2408 5.81165 18.0217 4.58331 16.5 4.58331C16.2067 4.58331 15.9225 4.62915 15.6658 4.71165C16.1883 5.45415 16.4908 6.35248 16.4908 7.33331C16.4908 8.31415 16.1792 9.20331 15.6658 9.95498C15.9225 10.0375 16.2067 10.0833 16.5 10.0833ZM11.9167 10.0833C13.4383 10.0833 14.6575 8.85498 14.6575 7.33331C14.6575 5.81165 13.4383 4.58331 11.9167 4.58331C10.395 4.58331 9.16667 5.81165 9.16667 7.33331C9.16667 8.85498 10.395 10.0833 11.9167 10.0833ZM17.985 12.0633C18.7458 12.7325 19.25 13.585 19.25 14.6666V16.5H22V14.6666C22 13.255 19.8275 12.3841 17.985 12.0633ZM11.9167 11.9166C10.0833 11.9166 6.41667 12.8333 6.41667 14.6666V16.5H17.4167V14.6666C17.4167 12.8333 13.75 11.9166 11.9167 11.9166Z" fill="white"/>
</g>
<defs>
<clipPath id="clip0_1_81">
<rect width="22" height="22" fill="white"/>
</clipPath>
</defs>
</svg>
