<svg width="20" height="20" viewBox="0 0 20 20" fill="none" xmlns="http://www.w3.org/2000/svg">
<g clip-path="url(#clip0_1_154)">
<path d="M10 1.66675C6.77502 1.66675 4.16669 4.27508 4.16669 7.50008C4.16669 11.8751 10 18.3334 10 18.3334C10 18.3334 15.8334 11.8751 15.8334 7.50008C15.8334 4.27508 13.225 1.66675 10 1.66675ZM5.83335 7.50008C5.83335 5.20008 7.70002 3.33342 10 3.33342C12.3 3.33342 14.1667 5.20008 14.1667 7.50008C14.1667 9.90008 11.7667 13.4918 10 15.7334C8.26669 13.5084 5.83335 9.87508 5.83335 7.50008Z" fill="black"/>
<path d="M10 9.58341C11.1506 9.58341 12.0834 8.65067 12.0834 7.50008C12.0834 6.34949 11.1506 5.41675 10 5.41675C8.84943 5.41675 7.91669 6.34949 7.91669 7.50008C7.91669 8.65067 8.84943 9.58341 10 9.58341Z" fill="black"/>
</g>
<defs>
<clipPath id="clip0_1_154">
<rect width="20" height="20" fill="white"/>
</clipPath>
</defs>
</svg>
